<?xml version="1.0" encoding="UTF-8" standalone="no"?>
<svg
   xmlns:dc="http://purl.org/dc/elements/1.1/"
   xmlns:cc="http://creativecommons.org/ns#"
   xmlns:rdf="http://www.w3.org/1999/02/22-rdf-syntax-ns#"
   xmlns:svg="http://www.w3.org/2000/svg"
   xmlns="http://www.w3.org/2000/svg"
   xmlns:sodipodi="http://sodipodi.sourceforge.net/DTD/sodipodi-0.dtd"
   xmlns:inkscape="http://www.inkscape.org/namespaces/inkscape"
   width="57.688187"
   height="57.686893"
   id="svg2"
   version="1.1"
   inkscape:version="0.91 r13725"
   sodipodi:docname="emtu.svg">
  <defs
     id="defs26" />
  <sodipodi:namedview
     pagecolor="#ffffff"
     bordercolor="#666666"
     borderopacity="1"
     objecttolerance="10"
     gridtolerance="10"
     guidetolerance="10"
     inkscape:pageopacity="0"
     inkscape:pageshadow="2"
     inkscape:window-width="1521"
     inkscape:window-height="983"
     id="namedview24"
     showgrid="false"
     fit-margin-top="0"
     fit-margin-left="0"
     fit-margin-right="0"
     fit-margin-bottom="0"
     inkscape:zoom="10.020713"
     inkscape:cx="24.650753"
     inkscape:cy="32.450752"
     inkscape:window-x="0"
     inkscape:window-y="0"
     inkscape:window-maximized="0"
     inkscape:current-layer="svg2" />
  <title
     id="title4">Empresa Metropolitana de Transportes Urbanos de São Paulo (EMTU/SP)</title>
  <metadata
     id="metadata6">
    <rdf:RDF>
      <cc:Work
         rdf:about="">
        <dc:format>image/svg+xml</dc:format>
        <dc:type
           rdf:resource="http://purl.org/dc/dcmitype/StillImage" />
        <dc:title>Empresa Metropolitana de Transportes Urbanos de São Paulo (EMTU/SP)</dc:title>
        <cc:license
           rdf:resource="http://creativecommons.org/licenses/by-sa/3.0/" />
      </cc:Work>
      <cc:License
         rdf:about="http://creativecommons.org/licenses/by-sa/3.0/">
        <cc:permits
           rdf:resource="http://creativecommons.org/ns#Reproduction" />
        <cc:permits
           rdf:resource="http://creativecommons.org/ns#Distribution" />
        <cc:requires
           rdf:resource="http://creativecommons.org/ns#Notice" />
        <cc:requires
           rdf:resource="http://creativecommons.org/ns#Attribution" />
        <cc:permits
           rdf:resource="http://creativecommons.org/ns#DerivativeWorks" />
        <cc:requires
           rdf:resource="http://creativecommons.org/ns#ShareAlike" />
      </cc:License>
    </rdf:RDF>
  </metadata>
  <path
     style="fill:#295198;fill-opacity:1;fill-rule:evenodd;stroke:none"
     d="M 0,28.843658 C 0,12.912884 12.913306,8.3737254e-8 28.842424,8.3737254e-8 44.77401,-0.00120074 57.688094,12.912884 57.688094,28.843658 c 0,15.930352 -12.914084,28.843235 -28.84567,28.843235 C 12.913306,57.686893 0,44.77401 0,28.843658 Z m 0.04121737,0 c 0,-10.216326 8.28242003,-18.498325 18.49874663,-18.498325 10.216293,0 18.498324,8.281999 18.498324,18.498325 0,10.216294 -8.282031,18.498324 -18.498324,18.498324 -10.2163266,0 -18.49874663,-8.28203 -18.49874663,-18.498324"
     id="path12"
     inkscape:connector-curvature="0" />
  <path
     style="fill:#cf3134;fill-opacity:1;fill-rule:evenodd;stroke:none"
     d="m 0,28.843658 0.00123328,-0.416231 0.04381374,0 C 0.26703665,18.403005 8.4629651,10.345333 18.540126,10.345333 c 3.806116,0 7.344481,1.102646 10.287304,3.073843 -4.951764,3.319718 -8.211831,9.015505 -8.211831,15.424482 0,10.216294 8.281998,18.498324 18.498324,18.498324 10.216294,0 18.498325,-8.28203 18.498325,-18.498324 0,-0.139231 -0.0012,-0.277163 -0.0032,-0.416231 l 0.07594,0 0.0032,0.416231 c 0,15.930352 -12.914117,28.843235 -28.84567,28.843235 C 12.91337,57.686893 9.7363872e-5,44.77401 9.7363872e-5,28.843658"
     id="path14"
     inkscape:connector-curvature="0" />
</svg>
