<?xml version="1.0" encoding="UTF-8" standalone="no"?>
<!-- Created with Inkscape (http://www.inkscape.org/) -->

<svg
   xmlns:dc="http://purl.org/dc/elements/1.1/"
   xmlns:cc="http://creativecommons.org/ns#"
   xmlns:rdf="http://www.w3.org/1999/02/22-rdf-syntax-ns#"
   xmlns:svg="http://www.w3.org/2000/svg"
   xmlns="http://www.w3.org/2000/svg"
   xmlns:sodipodi="http://sodipodi.sourceforge.net/DTD/sodipodi-0.dtd"
   xmlns:inkscape="http://www.inkscape.org/namespaces/inkscape"
   id="svg2"
   version="1.1"
   inkscape:version="0.91 r13725"
   width="680.50568"
   height="700.98993"
   viewBox="0 0 680.50568 700.98993"
   sodipodi:docname="sbctrans.svg">
  <metadata
     id="metadata8">
    <rdf:RDF>
      <cc:Work
         rdf:about="">
        <dc:format>image/svg+xml</dc:format>
        <dc:type
           rdf:resource="http://purl.org/dc/dcmitype/StillImage" />
        <dc:title></dc:title>
      </cc:Work>
    </rdf:RDF>
  </metadata>
  <defs
     id="defs6" />
  <sodipodi:namedview
     pagecolor="#ffffff"
     bordercolor="#666666"
     borderopacity="1"
     objecttolerance="10"
     gridtolerance="10"
     guidetolerance="10"
     inkscape:pageopacity="0"
     inkscape:pageshadow="2"
     inkscape:window-width="1521"
     inkscape:window-height="983"
     id="namedview4"
     showgrid="false"
     fit-margin-top="0"
     fit-margin-left="0"
     fit-margin-right="0"
     fit-margin-bottom="0"
     inkscape:zoom="0.62731872"
     inkscape:cx="430.70855"
     inkscape:cy="369.55655"
     inkscape:window-x="0"
     inkscape:window-y="0"
     inkscape:window-maximized="0"
     inkscape:current-layer="svg2" />
  <path
     style="fill:#210b57;fill-opacity:1"
     d="m 82.352956,699.98651 c -13.45178,-2.2596 -20.57068,-4.4736 -31,-9.6409 -16.10877,-7.9813 -28.00658,-19.0459 -35.40391,-32.9247 -4.06486,-7.6265 -3.93735,-8.7514 0.28182,-2.4863 4.5957,6.8242 14.33677,15.6485 21.88254,19.8231 14.66287,8.1121 32.17507,11.2534 57.55065,10.3234 93.896814,-3.4414 201.670164,-55.6739 308.251174,-149.39422 54.48977,-47.91473 117.17618,-114.93466 156.94526,-167.7949 50.67332,-67.35393 83.89421,-134.6318 98.01659,-198.5 6.02094,-27.22956 7.88899,-59.29919 4.60829,-79.112575 -4.20564,-25.39948 -19.55228,-53.47099 -35.75229,-65.39675 -3.35507,-2.46987 -5.8144,-4.49067 -5.46516,-4.49067 0.34923,0 3.66145,1.52411 7.36049,3.38692 41.93626,21.11876 59.73919,75.60479 46.65245,142.780275 -9.68492,49.71363 -36.23359,110.71279 -73.67643,169.28156 -64.29798,100.57606 -148.38814,188.317 -252.75147,263.72466 -81.11539,58.6099 -146.46587,89.0873 -213,99.3365 -14.40167,2.2185 -44.217264,2.8118 -54.500004,1.0846 z"
     id="path4185"
     inkscape:connector-curvature="0" />
  <path
     style="fill:#210b57;fill-opacity:1"
     d="m 72.911106,673.34251 c -23.15768,-2.9079 -43.08524,-13.5662 -54.77991,-29.2991 -13.5128805,-18.1789 -19.1066305,-41.0434 -17.9932705,-73.5476 1.51788,-44.31413 16.9853005,-94.98024 47.1976505,-154.60382 32.3691,-63.8799 76.191814,-125.94415 133.273764,-188.75 6.87329,-7.5625 12.73464,-13.75 13.02524,-13.75 0.29059,0 -0.14184,0.7875 -0.96097,1.75 -29.38954,34.53361 -72.99453,98.46036 -91.23205,133.75 -6.811464,13.18018 -6.204314,12.40087 5.05667,-6.49064 44.24734,-74.22968 105.72782,-139.90541 171.70955,-183.42653 41.43407,-27.32964 76.9377,-44.56274 106.64518,-51.7645 10.60274,-2.57035 32.97788,-3.58751 41.23029,-1.87432 12.98385,2.69543 24.64284,11.68231 28.2972,21.81179 2.26702,6.28393 3.14066,30.6345 1.53263,42.71817 -4.70934,35.38856 -23.83778,76.74818 -56.77749,122.76464 -11.30946,15.79921 -16.90507,22.12982 -8.62806,9.76139 29.43464,-43.98455 44.55807,-88.63176 38.95415,-115 -6.16135,-28.99116 -29.18221,-43.19619 -60.85313,-37.54944 -27.58157,4.91764 -65.70783,25.3657 -104.05279,55.80609 -43.55392,34.57555 -77.41395,71.14944 -109.93237,118.74335 -43.7533,64.03726 -57.79594,113.97273 -39.72366,141.2569 3.74168,5.6489 13.05489,12.11217 20.83095,14.45647 7.71691,2.32646 24.17091,2.26638 34.62228,-0.12643 10.25404,-2.34763 25.30003,-7.58731 36.05337,-12.55537 4.64565,-2.14629 8.44663,-3.74024 8.44663,-3.54211 0,0.79891 -18.61923,10.942 -30.1807,16.44135 -26.40283,12.55884 -45.04416,18.02369 -64.17088,18.81218 -15.11971,0.62331 -21.32251,-0.45701 -30.585944,-5.32702 l -6.43751,-3.38437 3.93751,4.1123 c 8.06394,8.42187 19.495774,14.19858 33.437524,16.89657 7.31819,1.41621 26.87012,1.37686 35.54018,-0.0715 48.03131,-8.02399 110.46891,-38.10199 167.95982,-80.91113 34.6876,-25.82924 89.59162,-75.75138 120.83453,-109.87025 51.43753,-56.17245 85.05742,-108.79107 106.81119,-167.17062 18.90691,-50.73956 17.68356,-85.460145 -3.73582,-106.028085 -27.49127,-26.39847 -86.17129,-21.29839 -160.9099,13.98523 -10.8217,5.10886 -29.76614,15.1303 -38.25,20.23392 -1.7875,1.0753 -3.25,1.74222 -3.25,1.48205 0,-0.26017 4.6125,-3.40218 10.25,-6.98226 62.69877,-39.81661 118.56226,-65.77613 159.082,-73.9246905 8.68657,-1.74688 14.38977,-2.22914 25.668,-2.17046 57.07542,0.29695 94.498,32.1302205 101.93424,86.7096905 1.36911,10.04883 1.36867,33.998725 -8.5e-4,46.467045 -1.50908,13.73891 -5.28874,32.52231 -10.02888,49.83958 -18.28806,66.81227 -76.11094,160.33503 -154.48926,249.87101 -18.38305,20.99999 -58.69022,62.01656 -79.41525,80.81295 -84.9865,77.07777 -173.32498,130.06847 -252.9003,151.70477 -26.81598,7.2912 -54.342704,10.2808 -73.041554,7.9328 z"
     id="path4183"
     inkscape:connector-curvature="0" />
  <path
     style="fill:#ff6700;fill-opacity:1"
     d="m 153.85296,472.19004 c -19.93454,-10.56778 -6.29981,-47.48802 38.28793,-103.67635 25.01989,-31.52943 77.64867,-77.18912 104.49945,-90.66165 8.9392,-4.4853 17.67598,-5.69691 21.76413,-3.01825 5.59556,3.66635 6.70409,11.32893 3.4689,23.97841 -7.65928,29.9475 -29.53212,61.51705 -74.51617,107.55086 -18.77202,19.21009 -20.25856,21.59335 -6.00424,9.62615 27.22508,-22.85679 46.41176,-44.19634 65.56481,-72.9216 14.9881,-22.47877 28.93519,-52.21927 28.93519,-61.70081 0,-4.10323 -2.56422,-9.45926 -5.42656,-11.33473 -1.23983,-0.81237 -4.23856,-2.01783 -6.66384,-2.67878 -3.75598,-1.02362 -4.10068,-1.31828 -2.32545,-1.98795 4.23214,-1.59648 17.5035,-3.08275 21.78875,-2.44014 9.11197,1.36643 13.50547,6.03391 14.3397,15.23395 1.02153,11.26557 -4.9987,28.92422 -16.28858,47.778 -20.68702,34.54672 -68.00199,86.04828 -103.96368,113.16273 -28.30743,21.34328 -53.66985,33.83771 -70.96034,34.95757 -7.0887,0.45912 -8.51261,0.2464 -12.5,-1.86741 z"
     id="path4138"
     inkscape:connector-curvature="0" />
</svg>
