<?xml version="1.0" encoding="UTF-8" standalone="no"?>
<!-- Created with Inkscape (http://www.inkscape.org/) -->

<svg
   xmlns:dc="http://purl.org/dc/elements/1.1/"
   xmlns:cc="http://creativecommons.org/ns#"
   xmlns:rdf="http://www.w3.org/1999/02/22-rdf-syntax-ns#"
   xmlns:svg="http://www.w3.org/2000/svg"
   xmlns="http://www.w3.org/2000/svg"
   xmlns:sodipodi="http://sodipodi.sourceforge.net/DTD/sodipodi-0.dtd"
   xmlns:inkscape="http://www.inkscape.org/namespaces/inkscape"
   width="103.37136mm"
   height="96.184196mm"
   viewBox="0 0 366.27626 340.81007"
   id="svg2"
   version="1.1"
   inkscape:version="0.91 r13725"
   sodipodi:docname="sptrans.svg">
  <defs
     id="defs4" />
  <sodipodi:namedview
     id="base"
     pagecolor="#ffffff"
     bordercolor="#666666"
     borderopacity="1.0"
     inkscape:pageopacity="0.0"
     inkscape:pageshadow="2"
     inkscape:zoom="1"
     inkscape:cx="166.81457"
     inkscape:cy="193.65523"
     inkscape:document-units="px"
     inkscape:current-layer="layer1"
     showgrid="false"
     fit-margin-top="0"
     fit-margin-left="0"
     fit-margin-right="0"
     fit-margin-bottom="0"
     inkscape:window-width="1912"
     inkscape:window-height="970"
     inkscape:window-x="1280"
     inkscape:window-y="31"
     inkscape:window-maximized="1" />
  <metadata
     id="metadata7">
    <rdf:RDF>
      <cc:Work
         rdf:about="">
        <dc:format>image/svg+xml</dc:format>
        <dc:type
           rdf:resource="http://purl.org/dc/dcmitype/StillImage" />
        <dc:title></dc:title>
      </cc:Work>
    </rdf:RDF>
  </metadata>
  <g
     inkscape:label="Camada 1"
     inkscape:groupmode="layer"
     id="layer1"
     transform="translate(-55.573158,-670.27005)">
    <g
       id="g3347"
       transform="translate(-169.82246,373.74113)">
      <path
         style="fill:#f0d2ce"
         d="m 290.46495,635.91725 c -0.34232,-0.89207 2.57922,-16.10802 6.49231,-33.8132 3.91309,-17.70518 11.86216,-53.79124 17.6646,-80.19124 5.80244,-26.4 13.23497,-60.15 16.51672,-75 3.28176,-14.85 5.96598,-27.7875 5.96494,-28.75 -0.002,-1.64515 -3.28227,-1.75092 -54.7519,-1.76531 -31.46467,-0.009 -55.36677,-0.4055 -56.20018,-0.93274 -1.24626,-0.78842 -1.05552,-2.93065 1.35651,-15.23469 1.54367,-7.87449 3.24365,-15.77976 3.77773,-17.56726 l 0.97104,-3.25 53.67245,0.0174 c 42.28936,0.0137 55.08154,0.31603 60.31643,1.42559 17.52174,3.71383 25.8473,13.8829 26.65488,32.55705 0.45529,10.52782 1.46591,5.10208 -20.30292,109 -10.14648,48.42691 -14.23584,68.07998 -20.46682,98.36158 -1.56875,7.62386 -3.36343,14.37386 -3.98818,15 -0.74003,0.74167 -7.39497,1.24757 -19.09555,1.45162 -15.82493,0.27598 -18.03363,0.12042 -18.58206,-1.30876 z m 43.83926,-0.76033 c -0.73901,-0.89046 -0.0768,-5.76431 2.27578,-16.75 8.44822,-39.44987 20.56373,-95.6802 30.16344,-139.99411 5.77859,-26.675 10.89284,-52.18694 11.36499,-56.6932 2.75027,-26.24902 -9.71623,-44.45843 -33.0262,-48.24027 -3.9222,-0.63634 -26.68969,-1.0544 -57.67158,-1.05898 -34.35266,-0.005 -51.4024,-0.34963 -51.83373,-1.04753 -0.82469,-1.33438 5.36423,-31.01512 6.84465,-32.82549 0.92736,-1.13404 10.01998,-1.2815 53.64834,-0.87006 52.46742,0.49481 52.54212,0.49849 61.03172,3.00467 11.28341,3.33093 15.21787,5.09169 23.21384,10.38871 18.13422,12.01322 29.45564,33.53432 31.21763,59.34215 0.88656,12.9855 0.18966,17.48231 -11.39085,73.5 -9.76359,47.22879 -20.54598,100.11534 -27.01381,132.5 -1.70261,8.525 -3.52051,16.5125 -4.03979,17.75 -0.92462,2.20348 -1.28318,2.25 -17.34314,2.25 -11.94027,0 -16.68238,-0.34146 -17.44129,-1.25589 z m 41.2147,-1.09906 c -0.28597,-0.74523 5.38218,-29.65773 12.5959,-64.25 7.21372,-34.59228 15.08557,-72.34505 17.49299,-83.89505 2.40743,-11.55 6.01407,-28.65 8.01475,-38 3.52462,-16.47202 3.62304,-17.49692 3.16875,-33 -0.55874,-19.06727 -3.21366,-30.9484 -9.9316,-44.44522 -5.81022,-11.67315 -17.06536,-23.19723 -27.78715,-28.45115 -16.75201,-8.20884 -30.65724,-9.63716 -92.85675,-9.53804 -24.54241,0.0391 -39.75608,-0.30749 -40.36828,-0.91969 -1.26241,-1.26241 4.78445,-32.21277 6.51985,-33.37132 0.67884,-0.45319 25.08425,-0.67585 54.23425,-0.49479 l 53,0.32918 9.77735,2.64485 c 18.42947,4.98532 35.24455,14.38401 48.61671,27.17402 21.05791,20.14115 33.435,46.2451 35.93272,75.78402 l 0.70082,8.28814 3.185,-14.47598 c 2.17218,-9.87263 3.73906,-14.88112 4.92733,-15.75 1.36154,-0.99558 13.66642,-1.27104 56.3012,-1.26037 30.00738,0.008 55.57137,0.285 56.80887,0.61664 3.01797,0.80878 2.91868,3.84474 -0.39896,12.19915 -5.27338,13.2793 -10.78551,18.74502 -21.85104,21.66707 -4.9215,1.2996 -13.97828,1.65331 -50.3853,1.96775 -24.41192,0.21085 -45.39039,10e-4 -46.61883,-0.46583 -2.15836,-0.82061 -2.25682,-0.59215 -2.92557,6.78773 -0.65124,7.18664 -6.9373,40.60283 -17.06457,90.71384 -2.44537,12.1 -8.74888,43.375 -14.00781,69.5 -5.25893,26.125 -9.98769,48.5125 -10.50836,49.75 -0.93066,2.21192 -1.24374,2.25 -18.49951,2.25 -13.8449,0 -17.66265,-0.28623 -18.07276,-1.35495 z m 88.61677,-259.10401 c -0.96353,-1.16098 -0.45076,-4.99056 2.51053,-18.75 2.04674,-9.51007 4.16662,-17.85354 4.71083,-18.54104 1.46983,-1.85684 117.02639,-1.82029 118.56822,0.0375 0.77905,0.93869 -0.12811,5.74756 -3.34843,17.75 -2.42933,9.05437 -4.87042,17.47499 -5.42465,18.71249 l -1.00768,2.25 -57.399,0 c -49.08379,0 -57.5744,-0.21135 -58.60982,-1.45896 z m 10.64436,-43.36436 c -2.34839,-0.45239 -2.14076,-3.43377 1.33551,-19.17668 2.00763,-9.09193 3.55325,-13.92847 4.73354,-14.81223 1.39987,-1.04816 10.20419,-1.23924 43.75253,-0.94955 38.75877,0.33468 42.38525,0.51312 46.99205,2.31222 7.04983,2.75319 14.7403,10.53421 17.24649,17.44956 2.55663,7.05451 3.44619,12.15616 2.406,13.79841 -0.65608,1.03581 -12.3467,1.33918 -57.80506,1.5 -31.34046,0.11087 -57.73794,0.0561 -58.66106,-0.12173 z"
         id="path3361"
         inkscape:connector-curvature="0" />
      <path
         style="fill:#e1a39f"
         d="m 291.55483,635.15147 c -0.29404,-0.76625 4.62473,-24.75842 10.93061,-53.31592 6.30587,-28.55751 13.58545,-61.59774 16.17684,-73.42274 2.59139,-11.825 8.19889,-37.25 12.4611,-56.5 4.26221,-19.25 7.54939,-35.3375 7.30484,-35.75 -0.24455,-0.4125 -25.4072,-0.75 -55.917,-0.75 -43.96041,0 -55.57364,-0.26391 -55.96037,-1.27171 -0.2684,-0.69944 0.98322,-8.46194 2.78139,-17.25 l 3.26938,-15.97829 56,0 c 51.64526,0 56.42298,0.14248 61.43938,1.83226 14.8442,5.00027 22.08147,15.86685 22.04224,33.09588 -0.015,6.6053 -3.98807,27.11592 -21.86731,112.88917 -12.01691,57.64952 -22.37995,105.34952 -23.02899,106 -0.78857,0.79033 -6.80612,1.2875 -18.13878,1.49861 -13.78831,0.25687 -17.05866,0.0555 -17.49333,-1.07726 z m 43.8455,-1.40263 c -0.60205,-1.56889 6.93202,-37.66636 32.73395,-156.83603 9.59191,-44.3015 11.05992,-52.31343 11.17695,-61 0.26578,-19.72853 -6.25381,-31.9352 -21.06563,-39.44134 -9.20014,-4.66232 -14.15745,-5.02276 -69.33496,-5.0413 -29.03784,-0.01 -51.93165,-0.40676 -52.24013,-0.9059 -0.77799,-1.25881 5.27304,-29.21608 6.69408,-30.92832 0.99654,-1.20076 9.03697,-1.34225 52.70648,-0.92752 48.66196,0.46215 51.97589,0.60871 59.53055,2.63279 35.19442,9.42943 54.66768,36.10535 54.83099,75.11159 0.048,11.45322 -0.42117,14.76103 -5.60202,39.5 -5.24375,25.03933 -20.54251,99.98698 -31.4354,154 -2.55114,12.65 -5.06595,23.5625 -5.58845,24.25 -0.68767,0.90482 -5.20514,1.25 -16.35895,1.25 -13.44918,0 -15.49015,-0.21163 -16.04746,-1.66397 z m 41.22159,-0.30318 c -0.32875,-0.53193 1.4745,-10.76943 4.00723,-22.75 2.53272,-11.98057 5.89825,-28.08285 7.47894,-35.78285 1.5807,-7.7 8.97589,-43.17802 16.43376,-78.84004 13.15644,-62.91138 13.55977,-65.20528 13.55977,-77.11901 0,-38.07306 -13.62103,-65.26031 -39.13262,-78.10773 -16.02511,-8.07012 -28.84356,-9.41155 -90.05836,-9.42444 -22.93004,-0.005 -41.92949,-0.39469 -42.221,-0.86637 -0.89972,-1.45576 5.20853,-30.39729 6.602,-31.28101 1.91048,-1.21161 92.78095,-1.0552 102.83621,0.177 23.78588,2.91479 45.91952,13.87878 63.49155,31.45081 26.15122,26.15122 37.9286,63.19832 31.95267,100.51079 -2.55802,15.97173 -39.48542,199.15945 -40.5468,201.14266 -0.90656,1.69392 -2.43749,1.85734 -17.39982,1.85734 -9.48699,0 -16.65788,-0.40787 -17.00353,-0.96715 z m 93.2297,-217.75455 -13.75,-0.33474 0,-2.44094 c 0,-4.53562 5.98809,-29.87706 7.24903,-30.67769 1.44696,-0.91875 109.79431,-1.12927 112.16918,-0.21794 0.86999,0.33384 1.58179,1.49013 1.58179,2.56952 0,3.75937 -6.15881,16.72232 -10.03956,21.13109 -4.51624,5.13072 -8.72716,7.38115 -16.16568,8.63934 -5.81783,0.98407 -59.25313,1.86187 -81.04476,1.33136 z m -4.54607,-41.1311 c -1.03142,-0.65429 -0.54776,-4.27569 2.36859,-17.73469 2.01556,-9.30188 4.11639,-17.47501 4.66851,-18.16251 0.78207,-0.97383 13.6877,-1.25 58.4128,-1.25 51.4048,0 57.47236,0.16528 58.01537,1.58034 0.65975,1.71927 -7.31148,33.13061 -8.92497,35.16966 -0.77051,0.97374 -13.39394,1.24662 -57.11667,1.23469 -30.87016,-0.008 -56.71079,-0.3853 -57.42363,-0.83749 z m 10.46736,-43.97052 c -0.91921,-0.17783 -1.67129,-1.10266 -1.67129,-2.05518 0,-3.93333 6.17419,-29.61276 7.29047,-30.32218 1.85185,-1.17691 75.24154,-0.94126 82.67937,0.26548 7.77644,1.26167 15.19028,5.09382 19.15602,9.90158 3.4123,4.13681 6.6294,12.17991 7.06623,17.66634 l 0.30791,3.86728 -56.57871,0.5 c -31.11829,0.275 -57.33079,0.3545 -58.25,0.17668 z"
         id="path3359"
         inkscape:connector-curvature="0" />
      <path
         style="fill:#d7827c"
         d="m 292.10162,633.80092 c 0,-1.48511 8.91514,-42.29936 36.69479,-167.99173 5.84734,-26.45699 10.34723,-48.84449 9.99975,-49.75 -0.57604,-1.50116 -5.53009,-1.64638 -56.16315,-1.64638 -47.14209,0 -55.53139,-0.2132 -55.53139,-1.41123 0,-4.12946 6.08717,-31.0406 7.19725,-31.81879 2.18971,-1.53502 106.1852,-0.12022 112.9502,1.53663 16.27577,3.98618 24.35309,15.26283 24.13415,33.69339 -0.0784,6.60094 -2.14406,18.2187 -9.2456,52 -12.59896,59.93194 -32.48397,155.14298 -33.72959,161.5 -1.06813,5.45116 -1.24067,5.5 -19.42885,5.5 -14.85631,0 -16.87756,-0.19304 -16.87756,-1.61189 z m 43.64344,-0.15601 c -0.26102,-0.42235 3.10734,-17.40985 7.48525,-37.75 4.37792,-20.34016 13.15032,-61.0571 19.49424,-90.4821 17.53319,-81.32418 17.36975,-80.47219 17.3611,-90.5 -0.0148,-17.14416 -5.02706,-28.15372 -16.37585,-35.96994 -10.88216,-7.49483 -11.19561,-7.52816 -70.94727,-7.54537 -29.2385,-0.008 -53.7717,-0.40233 -54.51822,-0.87534 -1.12063,-0.71006 -0.8785,-3.19214 1.38864,-14.23469 1.51026,-7.35606 3.1663,-14.19377 3.68007,-15.19489 0.88936,-1.73297 3.45981,-1.8017 53.61137,-1.4336 51.19363,0.37575 52.88846,0.45013 60.17723,2.64089 26.72932,8.03396 43.0691,24.70759 50.14257,51.16707 1.84536,6.90285 2.26119,11.09495 2.27611,22.94587 0.0177,14.09771 -0.16664,15.37395 -6.64561,46 -3.66513,17.325 -13.02013,62.75675 -20.78889,100.95944 -7.76877,38.20269 -14.3449,69.81519 -14.61362,70.25 -0.62936,1.01832 -31.09831,1.04008 -31.72712,0.0227 z m 41.35656,-1.53403 c 0,-1.32632 17.06246,-83.116 32.7937,-157.19807 l 8.7063,-41 -0.0327,-16 c -0.0368,-18.00662 -1.3807,-26.05914 -6.71518,-40.23525 -9.73309,-25.86525 -29.08836,-40.90532 -58.29336,-45.29705 -5.06372,-0.76146 -25.77711,-1.32011 -56.94327,-1.53579 -31.72432,-0.21954 -49.10291,-0.69416 -49.32051,-1.34697 -0.33182,-0.99547 3.04049,-19.0637 4.91524,-26.33494 l 0.96687,-3.75 48.8891,0 c 51.87217,0 59.02587,0.46253 72.49257,4.68706 35.85109,11.24658 64.39687,41.64918 74.20852,79.03559 3.1517,12.00924 4.28202,34.0296 2.36564,46.08612 -2.91339,18.32895 -39.56102,201.61866 -40.67172,203.41582 -0.26358,0.42648 -7.87768,0.77541 -16.92022,0.77541 -12.83586,0 -16.44098,-0.28548 -16.44098,-1.30193 z M 457.3233,414.16281 c -1.11738,-1.36505 4.18119,-28.20442 6.02125,-30.5 0.78003,-0.97313 13.37851,-1.25 56.87951,-1.25 l 55.87756,0 0,2.36665 c 0,5.27015 -6.47006,17.96397 -11.63665,22.8303 -7.05089,6.64114 -16.80886,7.70859 -70.99091,7.7659 -26.92672,0.0285 -35.36643,-0.25467 -36.15076,-1.21285 z m 7.7794,-40.99181 c 0.002,-2.12882 6.70286,-32.47014 7.43162,-33.64929 0.80329,-1.29975 115.13212,-1.62206 115.93261,-0.32683 0.26585,0.43014 -1.62418,8.41764 -4.20005,17.75 l -4.6834,16.96793 -57.24093,0.25819 c -45.46205,0.20506 -57.24071,-7.2e-4 -57.23985,-1 z m 10.33123,-44.33458 c -0.73196,-1.90746 4.44868,-27.36566 5.94681,-29.22324 0.83762,-1.03859 9.50133,-1.23339 43.13451,-0.96982 46.36371,0.36332 47.11147,0.45648 54.84724,6.83295 4.51245,3.71954 9.60976,13.91235 9.97002,19.9365 l 0.26911,4.5 -56.77821,0.25827 c -51.17017,0.23276 -56.83859,0.10093 -57.38948,-1.33466 z"
         id="path3357"
         inkscape:connector-curvature="0" />
      <path
         style="fill:#d25f5a"
         d="m 293.10162,632.96726 c 0,-2.47519 8.97855,-43.75735 42.08779,-193.51384 2.73102,-12.35267 4.74262,-23.04017 4.47023,-23.75 -0.39618,-1.03243 -11.46391,-1.29061 -55.32663,-1.29061 -36.36132,0 -55.17909,-0.3477 -55.86359,-1.0322 -0.70961,-0.7096 -0.0649,-5.7883 2.06278,-16.25 l 3.09498,-15.2178 47.98722,-0.27865 c 53.9518,-0.31329 64.49081,0.30253 72.84939,4.25677 11.51459,5.44728 17.4192,17.33125 16.34197,32.89084 -0.31435,4.54042 -7.45705,41.02983 -16.17481,82.63104 -8.58653,40.975 -16.30538,77.875 -17.153,82 -6.72874,32.74591 -10.43068,49.44304 -11.09511,50.04308 -0.42967,0.38804 -8.09372,0.96043 -17.03122,1.27199 l -16.25,0.56646 0,-2.32708 z m 43.44896,0.17313 c -0.26855,-0.69983 5.61543,-29.61233 13.07551,-64.25 7.46008,-34.63767 17.36593,-80.63521 22.01299,-102.21675 4.64706,-21.58155 8.72798,-42.95655 9.06869,-47.5 1.80318,-24.04525 -9.82141,-41.67484 -31.14111,-47.22792 -4.92781,-1.28353 -14.47326,-1.53291 -58.67514,-1.53291 l -52.7899,0 0.0831,-2.75 c 0.0457,-1.5125 1.28322,-8.14417 2.75,-14.73704 l 2.66688,-11.98704 5.5,-0.85711 c 3.025,-0.47142 26.2,-0.60116 51.5,-0.28831 52.541,0.6497 54.48814,0.90139 71.4049,9.23002 18.53056,9.12315 30.90353,26.0526 35.51759,48.59732 1.76292,8.61378 2.10136,27.83636 0.62337,35.40567 -0.52478,2.68757 -4.14678,20.41149 -8.0489,39.38649 -5.85689,28.4806 -21.27818,104.08993 -30.08413,147.5 -3.2271,15.90842 -1.43766,14.5 -18.42278,14.5 -10.85651,0 -14.67684,-0.32318 -15.04109,-1.27242 z m 41.87973,-1.31341 c -0.33469,-0.8722 -0.10642,-3.9097 0.50729,-6.75 0.6137,-2.84029 5.19681,-24.73917 10.1847,-48.66417 4.98788,-23.925 11.275,-54.075 13.97139,-67 2.69638,-12.925 7.49573,-35.65 10.66522,-50.5 5.52439,-25.88339 5.75908,-27.57898 5.67498,-41 -0.29214,-46.62016 -21.49703,-76.95545 -59.44796,-85.04503 -9.77817,-2.08431 -62.35634,-3.73365 -90.63431,-2.84314 l -21.25,0.66919 0,-2.50299 c 0,-3.12134 4.80493,-26.91734 5.59367,-27.70215 0.31831,-0.31674 22.92746,-0.55712 50.24254,-0.53418 53.69381,0.0451 57.71387,0.34855 72.93628,5.50604 42.25917,14.31777 71.60843,53.55203 74.81084,100.00757 0.86911,12.60761 -0.33846,21.49627 -8.6678,63.80203 -16.59976,84.31231 -31.8604,159.33606 -32.9307,161.89266 -0.91766,2.19197 -1.3302,2.25 -15.99478,2.25 -12.81986,0 -15.14309,-0.23524 -15.66136,-1.58583 z m 78.67131,-218.6491 c 0,-0.75649 1.35,-7.55198 3,-15.10109 1.65,-7.54912 3,-13.93679 3,-14.19482 0,-0.25804 25.425,-0.46916 56.5,-0.46916 39.4483,0 56.5,0.32278 56.5,1.06952 0,3.47239 -6.91343,16.98821 -10.8353,21.18311 -7.55535,8.08132 -7.49652,8.07317 -61.4147,8.50952 -39.19035,0.31716 -46.75,0.15593 -46.75,-0.99708 z m 9.37668,-40.22583 c -0.68266,-1.77899 5.45162,-31.53549 6.86256,-33.28924 1.284,-1.59598 113.27358,-1.84729 114.25681,-0.25639 0.69089,1.11789 -7.29664,31.81397 -8.78387,33.75639 -0.74532,0.97345 -13.21596,1.25 -56.36601,1.25 -47.66841,0 -55.48725,-0.20407 -55.96949,-1.46076 z m 9.25266,-44.32996 c -0.53305,-0.8625 5.09615,-28.26848 5.9897,-29.16106 0.30185,-0.30152 18.84855,-0.54072 41.21489,-0.53156 36.90398,0.0151 41.19508,0.18876 46.38434,1.87691 10.39962,3.38317 17.87063,12.567 19.40711,23.85643 l 0.64647,4.75 -56.57691,0 c -31.1173,0 -56.79682,-0.35582 -57.0656,-0.79072 z"
         id="path3355"
         inkscape:connector-curvature="0" />
      <path
         style="fill:#d0413b"
         d="m 293.44731,632.16281 c 0.30937,-1.2375 3.70583,-16.65 7.54769,-34.25 6.8103,-31.19878 16.01127,-72.96275 32.14509,-145.9092 5.97776,-27.02744 7.66694,-36.24084 6.8294,-37.25 -0.90563,-1.09123 -11.31655,-1.3408 -55.9313,-1.3408 -30.15019,0 -55.03038,-0.34276 -55.28929,-0.7617 -0.53958,-0.87305 5.05144,-29.27069 5.93708,-30.15534 1.10688,-1.10566 101.63091,-0.27725 108.88587,0.89732 17.4745,2.82909 26.52977,13.95622 26.52977,32.59984 0,4.76477 -1.67915,15.32169 -4.94165,31.0685 -5.27704,25.47015 -12.22631,58.83599 -30.11687,144.60138 -2.78219,13.3375 -5.84017,28.07413 -6.79551,32.74806 -2.08046,10.17849 -1.05913,9.70908 -21.50438,9.88363 l -13.85841,0.11831 0.56251,-2.25 z m 43.65431,-0.29556 c 0,-1.54743 1.61241,-9.28319 10.09962,-48.45444 4.47628,-20.6595 7.8773,-36.46089 13.8827,-64.5 2.23818,-10.45 5.39509,-25.075 7.01537,-32.5 8.89276,-40.75154 12.22528,-57.32114 12.99447,-64.6096 2.8428,-26.93716 -9.05548,-45.18543 -33.1684,-50.87002 -5.16639,-1.21797 -15.67301,-1.49352 -57.40709,-1.5056 -28.09584,-0.008 -51.31697,-0.24841 -51.60253,-0.53397 -0.58867,-0.58867 4.55144,-25.64529 5.61335,-27.36349 0.81738,-1.32254 74.21343,-1.49087 95.07251,-0.21804 20.67293,1.26147 35.36571,7.25972 48.01214,19.60072 11.06358,10.79637 17.22676,23.91667 20.12096,42.83385 2.56331,16.75446 3.29704,12.2338 -21.69469,133.66615 -2.77326,13.475 -8.28142,40.475 -12.24035,60 l -7.19806,35.5 -14.75,0.27673 c -12.96581,0.24326 -14.75,0.0833 -14.75,-1.32229 z m 41.71012,-0.1788 c -0.24179,-0.4266 4.66189,-25.07564 10.89706,-54.77564 11.16288,-53.17209 13.68799,-65.26094 19.42581,-93 1.59274,-7.7 4.28621,-20.525 5.98549,-28.5 5.20915,-24.44748 5.23881,-24.71176 4.65692,-41.5 -0.98614,-28.45176 -7.76268,-46.64333 -23.12852,-62.08835 -8.76591,-8.81109 -14.26253,-12.453 -24.42731,-16.18485 -13.66098,-5.01542 -18.11659,-5.3778 -72.90227,-5.92923 -46.91822,-0.47224 -51.24228,-0.65581 -50.80785,-2.15687 0.26116,-0.90239 1.46838,-6.8157 2.68272,-13.1407 1.21434,-6.325 2.67194,-12.09438 3.23911,-12.82085 1.66039,-2.12675 101.63985,-1.07414 110.94434,1.16805 20.05617,4.83312 36.87305,14.07473 51.22942,28.1528 10.35635,10.15559 16.44278,18.33467 22.32438,30 11.73909,23.28286 14.7076,46.54049 9.63973,75.52527 -1.91792,10.96919 -30.25933,153.27963 -37.83385,189.97473 l -1.1353,5.5 -15.17513,0.27564 c -8.34633,0.15161 -15.37297,-0.0734 -15.61475,-0.5 z m 79.28988,-219.61703 c 0,-2.98412 5.29555,-26.21392 6.24817,-27.40861 1.29773,-1.6275 109.26679,-1.84384 110.26978,-0.22095 0.3498,0.56598 -0.63308,4.27848 -2.18417,8.25 -3.39107,8.68273 -10.67113,16.82542 -16.83378,18.82846 -2.98171,0.96914 -15.90125,1.38725 -50.75,1.64239 -40.08517,0.29348 -46.75,0.13791 -46.75,-1.09129 z m 8.82689,-39.16505 c -0.55301,-0.55301 4.84605,-27.40625 6.28177,-31.24356 l 0.84184,-2.25 56.52475,0 c 53.19145,0 56.52088,0.1032 56.45907,1.75 -0.0361,0.9625 -1.94862,8.5 -4.25,16.75 l -4.18432,15 -55.57502,0.25832 c -30.56626,0.14207 -55.8104,0.0229 -56.09809,-0.26476 z m 10.92311,-44.16428 c -0.9625,-0.26176 -1.75,-0.77613 -1.75,-1.14305 0,-2.43358 5.51166,-25.9377 6.33046,-26.99585 0.81412,-1.05211 9.09081,-1.24045 42.09147,-0.95783 45.29402,0.38789 46.15618,0.49817 53.9185,6.89653 4.40784,3.63331 8.46216,11.15154 9.29659,17.23932 0.54575,3.98169 0.39364,4.40537 -1.76998,4.93017 -2.82991,0.68641 -105.5987,0.7156 -108.11704,0.0307 z"
         id="path3353"
         inkscape:connector-curvature="0" />
      <path
         style="fill:#e2312b"
         d="m 294.45476,631.66281 c 0.26835,-0.9625 1.20969,-5.125 2.09186,-9.25 2.39133,-11.18176 11.28357,-51.92264 14.07798,-64.5 1.34418,-6.05 4.50143,-20.225 7.01612,-31.5 2.51469,-11.275 6.54298,-29.725 8.95175,-41 2.40877,-11.275 6.26127,-28.825 8.56111,-39 7.06838,-31.27212 7.12228,-31.64202 4.82304,-33.09842 -0.75625,-0.47902 -26.06128,-0.87785 -56.23341,-0.88627 l -54.85841,-0.0153 0.53564,-2.25 c 0.2946,-1.2375 1.52062,-7.25797 2.7245,-13.37882 1.20387,-6.12085 2.56976,-11.74585 3.0353,-12.5 1.08052,-1.75037 47.12294,-2.34184 85.42138,-1.09734 24.93265,0.81018 26.23156,0.95099 31.64054,3.43007 9.74211,4.46508 14.87117,11.45706 16.88419,23.01668 1.25375,7.19959 0.21599,14.73651 -6.02801,43.77941 -1.71456,7.975 -4.63937,21.925 -6.49957,31 -1.86021,9.075 -5.23935,25.275 -7.50921,36 -2.26985,10.725 -6.31424,30.075 -8.98753,43 -2.67329,12.925 -6.90257,33.3365 -9.39839,45.35888 -2.49582,12.02239 -5.0574,22.48489 -5.69239,23.25 -0.89183,1.0746 -4.55491,1.39112 -16.09946,1.39112 -13.75249,0 -14.90602,-0.13963 -14.45703,-1.75 z m 44.10602,-3.82625 c 0.37744,-2.51694 2.50244,-12.75444 4.72222,-22.75 2.21979,-9.99556 4.62147,-21.09875 5.33708,-24.67375 0.7156,-3.575 2.66689,-12.575 4.33619,-20 1.6693,-7.425 5.32827,-24.3 8.13104,-37.5 2.80276,-13.2 6.24098,-29.175 7.64047,-35.5 1.3995,-6.325 3.39101,-15.55 4.42557,-20.5 1.03457,-4.95 3.05077,-14.4 4.48045,-21 4.12436,-19.03973 4.74713,-24.31055 4.21513,-35.67486 -0.4589,-9.80306 -0.80476,-11.29223 -4.23488,-18.23425 -4.5201,-9.14798 -9.16329,-13.56699 -19.38352,-18.44769 l -7.62891,-3.6432 -55.16765,-0.5 c -30.34221,-0.275 -55.38997,-0.725 -55.66169,-1 -0.27173,-0.275 0.72499,-6.35 2.21492,-13.5 l 2.70896,-13 50.45273,0 c 46.00681,0 51.15769,0.16672 58.45273,1.89196 30.15472,7.13147 49.0174,28.33433 53.42984,60.05857 1.90951,13.72887 1.34331,19.97425 -4.36848,48.18646 -6.58826,32.54135 -18.53946,91.14489 -26.07549,127.86301 -5.06205,24.66406 -10.47246,51.6335 -10.482,52.25 -0.002,0.1375 -6.35496,0.25 -14.11741,0.25 l -14.11355,0 0.68625,-4.57625 z m 40.54084,3.27943 c 0,-0.16325 0.93152,-4.55075 2.07004,-9.75 1.13852,-5.19925 3.60164,-16.87818 5.47359,-25.95318 1.87196,-9.075 4.55206,-21.9 5.95578,-28.5 1.40372,-6.6 3.85927,-18.3 5.45678,-26 4.23898,-20.43195 12.32121,-59.10507 17.03253,-81.5 5.99402,-28.49214 6.31517,-31.06852 5.73392,-46 -1.07081,-27.50797 -9.54407,-49.42291 -24.74115,-63.98963 -7.35607,-7.05095 -14.81515,-11.50192 -25.37498,-15.14174 -13.28375,-4.57872 -20.95073,-5.13175 -72.85452,-5.25513 l -47.74801,-0.1135 -0.002,-3.07055 c -0.002,-2.79075 3.35099,-20.17984 4.46924,-23.17945 0.77332,-2.07435 94.18964,-1.7598 106.60255,0.35896 37.03082,6.32077 69.79048,34.65896 82.78225,71.60937 6.64707,18.9052 7.82861,38.63011 3.70077,61.78167 -6.99059,39.20777 -37.72516,191.84536 -39.06622,194.01524 -0.52703,0.85277 -29.49057,1.52842 -29.49057,0.68794 z m 82.75,-218.34573 c -1.5125,-0.26966 -2.75,-1.0994 -2.75,-1.84387 0,-1.89156 4.95926,-24.63865 5.59642,-25.66959 0.63566,-1.02852 109.40358,-1.14306 109.40358,-0.1152 0,0.40083 -1.19113,3.84593 -2.64695,7.65577 -1.80099,4.71314 -4.11808,8.44396 -7.25,11.67348 -7.6309,7.86869 -8.68531,8.0231 -57.60305,8.43557 -23.1,0.19477 -43.2375,0.1335 -44.75,-0.13616 z m 6.25,-42.34153 c 0,-1.85587 4.48444,-24.41334 5.61928,-28.26592 0.48299,-1.63966 4.042,-1.75 56.44811,-1.75 47.17368,0 55.93261,0.2184 55.93261,1.39466 0,0.76707 -0.84706,4.25457 -1.88236,7.75 -1.0353,3.49544 -2.91923,10.06784 -4.18651,14.60534 l -2.30415,8.25 -54.81349,0 c -54.00024,0 -54.81349,-0.0294 -54.81349,-1.98408 z m 9.46994,-43.25729 c -0.26064,-0.69225 0.78526,-6.88363 2.32425,-13.75863 l 2.79815,-12.5 38.95383,-0.26541 c 42.17688,-0.28738 46.40998,0.0834 53.69401,4.70277 5.61438,3.56054 10.7907,12.11261 11.06782,18.28574 l 0.192,4.2769 -54.27807,0.25863 c -42.89305,0.20437 -54.37748,-0.005 -54.75199,-1 z"
         id="path3351"
         inkscape:connector-curvature="0" />
      <path
         style="fill:#d9332d"
         d="m 294.68698,630.66281 c 0.3429,-1.5125 1.22054,-5.225 1.95031,-8.25 0.72977,-3.025 1.637,-7.65829 2.01606,-10.2962 0.37907,-2.6379 0.89018,-4.59522 1.13581,-4.34959 0.24563,0.24563 -0.10593,3.97892 -0.78124,8.29619 -1.54825,9.89795 -1.68897,15.64193 -0.4063,16.58429 0.55,0.40408 -0.24607,0.74158 -1.76905,0.75 -2.50749,0.0139 -2.71016,-0.24446 -2.14559,-2.73469 z m 16.88821,1.81525 c 11.51187,-0.54345 12.02222,-0.66165 13.23526,-3.06525 0.69393,-1.375 1.27521,-3.4 1.29174,-4.5 0.0165,-1.1 0.48986,-2.675 1.05184,-3.5 1.35667,-1.99161 0.16224,5.52685 -1.4298,9 -1.13059,2.46647 -1.31343,2.50088 -13.63428,2.56525 l -12.48833,0.0652 11.97357,-0.56525 z m 27.00555,-4.81525 c 0.36674,-2.6125 1.2707,-7.225 2.0088,-10.25 1.12986,-4.63062 1.35543,-4.97695 1.42703,-2.19098 0.0468,1.81996 0.50396,3.05012 1.01595,2.73369 1.51546,-0.93661 2.14564,1.09358 1.1221,3.61494 l -0.95088,2.34235 -0.6898,-2.33453 c -0.98922,-3.34791 -2.37767,-0.75433 -2.39701,4.47754 -0.0191,5.16502 0.44476,5.35699 12.94403,5.35699 7.32492,0 10.09848,-0.36474 10.99587,-1.44603 1.56085,-1.88071 3.96362,-11.99106 4.00917,-16.86971 0.0196,-2.09866 0.53224,-4.74369 1.13923,-5.87785 0.60698,-1.13416 1.47024,-4.36707 1.91836,-7.18426 1.01346,-6.3713 3.55566,-18.65654 5.09509,-24.62215 0.63868,-2.475 1.49353,-6.525 1.89967,-9 0.40614,-2.475 1.94611,-9.9 3.42216,-16.5 2.47349,-11.05996 3.22393,-14.95457 5.58788,-29 0.46285,-2.75 2.67404,-13.55 4.91377,-24 6.78359,-31.65054 8.05946,-38.18622 8.05946,-41.28496 0,-1.63394 0.675,-4.58629 1.5,-6.5608 0.825,-1.9745 1.5,-6.07946 1.5,-9.12212 0,-3.04267 0.44143,-5.53212 0.98095,-5.53212 0.53952,0 1.26856,-1.14596 1.62009,-2.54657 0.35154,-1.40061 0.81737,-2.36835 1.0352,-2.15052 0.21783,0.21783 -1.83466,11.37628 -4.56109,24.79657 -7.81795,38.48222 -19.54373,95.94456 -25.58928,125.40052 -5.06205,24.66406 -10.47246,51.6335 -10.482,52.25 -0.002,0.1375 -6.3461,0.25 -14.09771,0.25 l -14.09384,0 0.6668,-4.75 z m 40.53762,3.5 c 0.009,-0.1375 2.03318,-9.475 4.4977,-20.75 2.46452,-11.275 4.22072,-17.8 3.90265,-14.5 -0.31807,3.3 -1.66703,10.6524 -2.9977,16.33866 -2.75935,11.79139 -2.89146,13.95521 -1.00395,16.44333 1.17419,1.54782 2.87296,1.75969 12.92758,1.61226 l 11.57575,-0.16973 0.66246,-4.41761 c 0.68751,-4.58465 3.23533,-13.56244 3.3507,-11.80691 0.11728,1.78464 -2.62793,15.19911 -3.3493,16.36629 -0.46986,0.76026 -5.45759,1.13371 -15.14165,1.13371 -7.94254,0 -14.43344,-0.1125 -14.42424,-0.25 z m -56.00143,-11 c 0.0116,-2.46622 0.24909,-2.88826 0.98469,-1.75 1.2702,1.96549 1.2702,5 0,5 -0.55,0 -0.99311,-1.4625 -0.98469,-3.25 z m 5.3795,-8.98697 c 0.0739,-6.13566 0.48969,-8.88511 1.39661,-9.23451 0.81204,-0.31285 1.20528,-1.95762 1.05935,-4.43084 -0.12765,-2.16331 0.28769,-4.55959 0.92297,-5.32506 0.63529,-0.76547 1.87101,-4.96495 2.74606,-9.33219 0.87504,-4.36724 1.99458,-9.29043 2.48785,-10.94043 0.49327,-1.65 1.20365,-5.475 1.57861,-8.5 0.37496,-3.025 1.06794,-6.25138 1.53997,-7.16973 0.47202,-0.91836 1.31977,-4.96836 1.88387,-9 0.56411,-4.03165 1.74404,-9.51375 2.62208,-12.18244 1.2827,-3.89865 1.35994,-5.29404 0.39301,-7.10076 -0.66187,-1.23672 -1.01635,-3.32825 -0.78773,-4.64783 l 0.41567,-2.39924 1.06571,2.5 1.06572,2.5 0.55596,-2.5 c 0.30578,-1.375 1.0527,-5.65 1.65982,-9.5 0.60713,-3.85 2.43042,-12.37658 4.05177,-18.94795 1.62134,-6.57138 2.94789,-13.06443 2.94789,-14.429 0,-1.36458 0.44085,-3.863 0.97966,-5.55205 2.06595,-6.4763 6.02034,-25.78057 6.02034,-29.38974 0,-2.07969 0.46068,-4.24194 1.02374,-4.805 0.98981,-0.98981 2.0213,-5.90385 4.03688,-19.23184 1.24204,-8.21295 -0.40577,-18.72359 -3.16707,-20.20139 -1.06134,-0.56801 -1.89355,-2.08243 -1.89355,-3.44582 0,-2.78112 -8.0727,-9.37922 -14,-11.44269 -4.49037,-1.56323 -27.39475,-2.34529 -72.09863,-2.46177 -29.79924,-0.0776 -36.07129,0.15136 -38.5,1.40566 -1.59575,0.82412 -3.23198,1.94912 -3.63606,2.5 -1.09821,1.49719 -0.90194,-1.73354 0.21253,-3.49841 0.79985,-1.26661 5.50409,-1.54442 30.23469,-1.78551 16.10811,-0.15704 40.98747,0.0947 55.28747,0.55935 24.93265,0.81018 26.23156,0.95099 31.64054,3.43007 9.74211,4.46508 14.87117,11.45706 16.88419,23.01668 1.25375,7.19959 0.21599,14.73651 -6.02801,43.77941 -1.71456,7.975 -4.63937,21.925 -6.49957,31 -1.86021,9.075 -5.23935,25.275 -7.50921,36 -3.73158,17.63161 -7.41481,35.32035 -17.38674,83.5 l -3.31158,16 0.10519,-8.73697 z m 83.70564,0.33675 c -0.13031,-1.81645 3.61096,-21.22431 8.30838,-43.09978 2.75428,-12.82646 3.48742,-16.64463 5.08829,-26.5 0.89341,-5.5 2.24061,-12.25 2.99379,-15 1.42006,-5.18493 3.68502,-16.40739 5.99479,-29.70303 0.73601,-4.23666 1.63014,-8.17538 1.98694,-8.7527 0.35681,-0.57733 1.01779,-3.18596 1.46885,-5.79698 4.06189,-23.5127 6.2422,-35.2119 7.03474,-37.74729 0.97522,-3.11978 2.7083,-15.58108 3.96371,-28.5 l 0.72882,-7.5 0.14752,7 c 0.20693,9.81862 -3.75768,31.55803 -23.70804,130 -12.42178,61.29339 -13.84019,67.93594 -14.00779,65.59978 z m -69.41529,-3.45843 c 0.318,-2.12225 1.18256,-6.17225 1.92123,-9 l 1.34305,-5.14135 -0.44289,4.5 c -0.24358,2.475 -1.10814,6.525 -1.92123,9 l -1.47835,4.5 0.57819,-3.85865 z m 56.31484,2.35865 c 0,-0.55 0.45,-1 1,-1 0.55,0 1,0.45 1,1 0,0.55 -0.45,1 -1,1 -0.55,0 -1,-0.45 -1,-1 z m 8.19495,-4.5 c 0.0204,-1.65 0.2445,-2.20394 0.49804,-1.23097 0.25354,0.97297 0.23687,2.32297 -0.0371,3 -0.27393,0.67703 -0.48137,-0.11903 -0.46099,-1.76903 z m -60.82524,-0.75 c 0.33164,-1.2375 0.60913,-2.9025 0.61664,-3.7 0.0101,-1.07543 0.30472,-1.15893 1.14043,-0.32322 1.33223,1.33223 0.33787,6.27322 -1.26246,6.27322 -0.65023,0 -0.85182,-0.91706 -0.49461,-2.25 z m -46.26104,0.75 c -0.0271,-0.55 1.24807,-6.625 2.83366,-13.5 1.65068,-7.1572 2.92025,-11.08277 2.97028,-9.18426 0.0481,1.82366 -0.3848,4.19803 -0.96191,5.27638 -0.57712,1.07835 -1.17271,3.86127 -1.32355,6.18426 -0.15083,2.32299 -0.73904,5.34862 -1.30712,6.72362 -0.56808,1.375 -1.28695,3.175 -1.5975,4 -0.31055,0.825 -0.58679,1.05 -0.61386,0.5 z m 22.89133,-7.5 c 0,-0.55 0.45,-1 1,-1 0.55,0 1,0.45 1,1 0,0.55 -0.45,1 -1,1 -0.55,0 -1,-0.45 -1,-1 z m 23.3061,-7 c 0.71972,-4.20634 5.91809,-28.3102 6.79346,-31.5 0.53106,-1.93516 0.6178,-0.72258 0.24438,3.41623 -0.3184,3.52893 -0.98629,7.80393 -1.48421,9.5 -0.49793,1.69607 -1.61113,6.45877 -2.47379,10.58377 -1.48662,7.1086 -4.0799,13.84476 -3.07984,8 z m 43.6939,-1.41821 c 0,-0.78002 0.28762,-2.16775 0.63916,-3.08385 0.86642,-2.25785 2.29389,0.0421 1.62164,2.61276 -0.57547,2.20061 -2.2608,2.55179 -2.2608,0.47109 z m -1.37503,-4.58179 c 0.81325,-5.60135 1.37981,-6.39997 1.35972,-1.91667 -0.008,1.87917 -0.46481,4.09167 -1.0142,4.91667 -0.69801,1.0482 -0.80209,0.14459 -0.34552,-3 z m -82.48469,-6.5 c -0.006,-0.55 0.59652,-3.7 1.34012,-7 1.0746,-4.76899 1.35357,-5.28191 1.35971,-2.5 0.004,1.925 -0.5988,5.075 -1.34011,7 -0.74131,1.925 -1.35319,3.05 -1.35972,2.5 z m 83.93179,-0.0275 c 0.0396,-0.53488 0.92952,-4.79751 1.97751,-9.47251 l 1.90543,-8.5 -0.55725,7.44481 c -0.30649,4.09465 -1.19637,8.35728 -1.97751,9.47251 -0.78114,1.11523 -1.38782,1.59006 -1.34818,1.05519 z m -18.57207,-13.4725 c 0.33992,-0.55 0.81648,-1 1.05902,-1 0.24254,0 0.44098,0.45 0.44098,1 0,0.55 -0.47656,1 -1.05902,1 -0.58246,0 -0.7809,-0.45 -0.44098,-1 z m -62.03019,-2 c 0.28942,-1.375 1.65501,-7.9 3.03464,-14.5 1.37962,-6.6 4.058,-18.75 5.95195,-27 1.89395,-8.25 5.1363,-22.9875 7.20522,-32.75 2.06893,-9.7625 4.11644,-17.75 4.55003,-17.75 1.04914,0 1.014,5.34216 -0.0431,6.55 -1.25378,1.4326 -2.88777,8.02203 -4.20311,16.95 -0.64824,4.4 -1.63893,9.125 -2.20153,10.5 -1.47604,3.60747 -2.73502,8.70774 -3.70267,15 -0.46519,3.025 -1.80822,9.55 -2.9845,14.5 -1.17628,4.95 -3.09474,13.05 -4.26324,18 -1.97021,8.3462 -4.68439,16.86931 -3.34372,10.5 z m 84.9835,-5.23954 c 0.31875,-1.50674 1.93686,-9.38174 3.59579,-17.5 6.42458,-31.4396 9.83571,-46.63952 9.82062,-43.76046 -0.0206,3.93192 -1.25364,11.32555 -3.33539,20 -3.62115,15.089 -4.07716,17.22221 -6.89563,32.25771 -0.85137,4.54174 -2.04677,9.04174 -2.65645,10 -0.92158,1.44851 -1.01077,1.28036 -0.52894,-0.99725 z m 25.2413,0.60082 c -1.01207,-1.01208 -0.85113,-5.36128 0.1984,-5.36128 1.36543,0 2.21063,2.99239 1.30319,4.61389 -0.44384,0.7931 -1.11955,1.12942 -1.50159,0.74739 z m -59.62432,-4.11128 c 0.0623,-2.43684 0.16815,-2.52225 0.92971,-0.75 1.17371,2.73138 1.17371,3.5 0,3.5 -0.55,0 -0.96837,-1.2375 -0.92971,-2.75 z m -5.90032,0.75 c 0.0162,-0.825 0.38968,-2.625 0.83003,-4 0.64363,-2.00973 0.8064,-2.10779 0.83003,-0.5 0.0162,1.1 -0.35734,2.9 -0.83003,4 -0.52653,1.22531 -0.84804,1.41898 -0.83003,0.5 z m 12.90898,-3.58333 c 0.048,-1.16495 0.28494,-1.4019 0.60416,-0.60417 0.28887,0.72187 0.25335,1.58438 -0.0789,1.91667 -0.3323,0.33229 -0.56864,-0.25834 -0.52522,-1.3125 z m -11.0213,-4.31912 c -0.0867,-2.10965 7.25045,-36.12278 7.69611,-35.67712 0.21234,0.21233 -0.35862,4.3671 -1.26879,9.23281 -0.91016,4.86572 -1.84057,9.97176 -2.06758,11.34676 -0.67162,4.0681 -4.29705,16.62277 -4.35974,15.09755 z m 8.00574,-37.60418 c -0.0768,-1.21875 5.74392,-29.3941 6.49609,-31.44485 0.29281,-0.79831 1.3967,-5.74831 2.4531,-11 1.05639,-5.25169 3.08758,-14.94852 4.51374,-21.54852 3.82909,-17.72017 4.45097,-22.07448 4.57025,-32 0.0849,-7.06235 0.28615,-8.24647 0.93492,-5.5 0.93173,3.94438 -0.68157,25.55426 -2.10801,28.23643 -0.50792,0.95504 -0.92348,3.09864 -0.92348,4.76357 0,1.66493 -0.41969,3.80853 -0.93264,4.76357 -1.76708,3.29004 -5.27118,20.75411 -5.80678,28.9404 -0.32242,4.92812 -0.95601,8.12253 -1.58674,8 -1.0787,-0.20955 -1.42558,1.064 -4.03003,14.79603 -1.42165,7.49566 -3.43828,14.25079 -3.58042,11.99337 z m 22.28169,-17.0365 c -0.32569,-0.84872 -0.36872,-1.76657 -0.0956,-2.03966 0.27309,-0.2731 0.73656,0.42131 1.02992,1.54313 0.62315,2.38293 -0.0692,2.75089 -0.9343,0.49653 z m 22.28148,-3.2798 c 1.37793,-7.345 3.15796,-13.55975 3.26286,-11.39189 0.0608,1.25685 0.82437,3.37456 1.69678,4.70603 1.54826,2.36295 1.24119,4.50879 -0.64522,4.50879 -0.51754,0 -0.94098,-0.75 -0.94098,-1.66667 0,-2.16709 -1.29562,-0.86666 -1.68616,1.69244 -0.16571,1.08583 0.14589,1.97423 0.69243,1.97423 0.54655,0 0.99373,0.80357 0.99373,1.78571 0,1.12057 -0.74687,1.78572 -2.00511,1.78572 -1.73807,0 -1.92031,-0.45206 -1.36833,-3.39436 z m 25.92798,-12.00523 c -0.89986,-2.83521 0.38314,-5.03458 1.63353,-2.80026 0.55146,0.9854 0.54384,2.28506 -0.0193,3.29131 -0.82501,1.47421 -1.00817,1.41849 -1.61424,-0.49105 z m -22.4805,-3.17184 c 0.007,-0.825 0.65546,-4.2 1.44042,-7.5 l 1.42719,-6 -0.56836,6 c -0.52499,5.54214 -2.33401,11.44308 -2.29925,7.5 z m -76.99509,-4.58333 c 0.048,-1.16495 0.28494,-1.4019 0.60416,-0.60417 0.28887,0.72187 0.25335,1.58437 -0.0789,1.91667 -0.33229,0.33229 -0.56864,-0.25834 -0.52522,-1.3125 z m -4.90898,-0.91667 c 0.0162,-1.1 0.38968,-3.125 0.83003,-4.5 l 0.80064,-2.5 0.0294,2.5 c 0.0162,1.375 -0.35734,3.4 -0.83003,4.5 -0.85943,2 -0.85943,2 -0.83003,0 z m 1.92564,-8.08332 c -0.0526,-0.59583 1.53392,-8.24583 3.52557,-17 6.04813,-26.58418 6.39776,-28.73035 4.92116,-30.20835 -0.38922,-0.38958 -23.28297,-0.94156 -50.875,-1.22663 l -50.16734,-0.5183 49.63922,-0.2317 c 46.60458,-0.21754 49.77582,-0.12108 51.87374,1.57771 2.09477,1.69624 2.16424,2.1371 1.11078,7.04922 -1.4279,6.65804 -1.43193,11.43318 -0.0109,12.85424 0.61207,0.61207 0.76839,1.67025 0.34735,2.35149 -0.57704,0.93368 -1.0714,0.82029 -2.00797,-0.46054 -1.05567,-1.44372 -1.57134,-0.22619 -3.43009,8.09851 -2.44895,10.96799 -4.78168,19.35576 -4.92655,17.71435 z m 82.97485,-0.96193 c -0.0387,-0.57489 0.8751,-5.52489 2.03078,-11 2.14899,-10.18098 3.59315,-14.13366 2.54099,-6.95475 -0.32243,2.2 -0.80587,5.575 -1.0743,7.5 -0.51428,3.68798 -3.3768,12.24474 -3.49747,10.45475 z m 27.92954,-21.45475 c 0,-0.55 0.45,-1 1,-1 0.55,0 1,0.45 1,1 0,0.55 -0.45,1 -1,1 -0.55,0 -1,-0.45 -1,-1 z m -22.28018,-15.5 c 0.56052,-19.36548 1.1199,-20.84932 1.13095,-3 0.005,7.7 -0.34544,14.9 -0.77823,16 -0.43278,1.1 -0.59151,-4.75 -0.35272,-13 z m -13.51627,-1.09912 c -0.11195,-3.35452 -0.41141,-9.65452 -0.66546,-14 l -0.4619,-7.90088 0.9779,6 c 0.53784,3.3 0.83729,9.6 0.66545,14 -0.27415,7.01926 -0.3374,7.25229 -0.51599,1.90088 z m 54.54645,-9.04343 c -1.5125,-0.26966 -2.75,-1.0994 -2.75,-1.84387 0,-1.89156 4.95926,-24.63865 5.59642,-25.66959 0.63566,-1.02852 109.40358,-1.14306 109.40358,-0.1152 0,0.40083 -1.19113,3.84593 -2.64695,7.65577 -1.80099,4.71314 -4.11808,8.44396 -7.25,11.67348 -7.6309,7.86869 -8.68531,8.0231 -57.60305,8.43557 -23.1,0.19477 -43.2375,0.1335 -44.75,-0.13616 z m 75.98718,-1.28858 c 9.59797,-0.55418 14.97452,-1.29949 16.5,-2.28727 1.24455,-0.80587 3.49463,-1.76855 5.00017,-2.13929 1.50554,-0.37073 3.50112,-1.90442 4.43462,-3.40819 0.9335,-1.50376 2.5524,-3.7038 3.59756,-4.88896 2.43023,-2.75576 4.16499,-10.11667 2.77806,-11.78782 -0.77848,-0.93801 -12.86263,-1.1527 -52.28005,-0.9288 -28.19715,0.16016 -51.57314,0.30926 -51.94664,0.33133 -0.37351,0.0221 -1.17583,2.62763 -1.78294,5.79013 -0.60711,3.1625 -1.51362,7.55 -2.01447,9.75 -2.22333,9.76604 -2.25544,9.33228 0.72419,9.78352 5.10551,0.77318 60.63375,0.61424 74.9895,-0.21465 z m 26.84577,-19.93466 c -0.43077,-0.697 -0.51316,-1.53733 -0.18309,-1.86741 0.89497,-0.89496 1.87077,0.4213 1.38739,1.87145 -0.33872,1.01617 -0.57427,1.01538 -1.2043,-0.004 z m -335.53932,20.11579 c 0.024,-0.4125 0.68587,-3.45 1.47083,-6.75 l 1.42719,-6 -0.52866,5.63698 -0.52866,5.63699 3.80783,1.00966 3.80784,1.00967 -4.75,0.10335 c -2.6125,0.0568 -4.73036,-0.23415 -4.70637,-0.64665 z m 111.95637,-5.19098 c 0,-0.51754 0.45,-1.2191 1,-1.55902 0.55,-0.33992 1,0.0835 1,0.94098 0,0.85746 -0.45,1.55902 -1,1.55902 -0.55,0 -1,-0.42344 -1,-0.94098 z M 447.8748,395.71265 c -1.82707,-12.90837 -7.48637,-30.39048 -10.80241,-33.36966 -0.96103,-0.86341 -2.91532,-4.12333 -4.34287,-7.24427 -2.33572,-5.1064 -4.68436,-8.44545 -14.72603,-20.93591 -1.99998,-2.4877 -3.83733,-3.75 -5.45833,-3.75 -1.75778,0 -2.44354,-0.54843 -2.44354,-1.95419 0,-2.2442 -7.99403,-8.76348 -11.92705,-9.72673 -1.41512,-0.34658 -3.56396,-1.68516 -4.7752,-2.97461 -1.50755,-1.60491 -3.32139,-2.34447 -5.75,-2.34447 -1.95126,0 -3.54775,-0.46599 -3.54775,-1.03554 0,-2.34521 -10.23447,-5.75268 -25.5,-8.48998 -10.18002,-1.8254 -99.36334,-2.15317 -102.68144,-0.37737 -1.61838,0.86613 -1.95546,0.81349 -1.60109,-0.25 0.36623,-1.09907 9.27161,-1.40029 48.3657,-1.63592 53.75418,-0.32399 60.58551,0.2338 76.59849,6.25443 29.40126,11.05442 54.03651,36.49777 64.69836,66.82067 3.30403,9.39685 6.48639,25.63358 5.94776,30.34604 -0.18028,1.57722 -1.10485,-2.6224 -2.0546,-9.33249 z m -27.61314,6.98889 c -0.25896,-5.19612 -3.89207,-19.59145 -6.80409,-26.95952 -5.10693,-12.92169 -13.50261,-24.23612 -23.25247,-31.33615 -5.94093,-4.32629 -7.51153,-6.39127 -2.93913,-3.86428 1.28461,0.70996 2.89815,1.17669 3.58565,1.03719 0.6875,-0.13951 1.25,0.24848 1.25,0.86218 0,0.61371 2.95577,4.16748 6.56839,7.89728 8.80162,9.08713 12.94723,16.26545 18.23488,31.57457 2.24519,6.5004 4.32295,17.39608 3.93048,20.61122 l -0.41368,3.38878 -0.16003,-3.21127 z m -39,-0.71414 c -0.2563,-4.685 -6.98265,-17.18161 -11.3925,-21.16564 -2.20535,-1.9924 -7.44273,-5.26199 -11.63863,-7.26575 l -7.62891,-3.6432 -55.16765,-0.5 c -30.34221,-0.275 -55.38892,-0.725 -55.65935,-1 -0.77004,-0.78304 1.49117,-11 2.43451,-11 0.94972,0 0.0819,5.57823 -1.28355,8.25 -0.49188,0.9625 -0.541,1.78975 -0.10914,1.83832 0.43185,0.0486 24.45292,0.0433 53.38017,-0.0118 l 52.59498,-0.10015 8.73682,3.5222 c 4.80525,1.93721 9.32514,4.08003 10.04421,4.76183 0.71906,0.68179 2.53324,2.12844 4.0315,3.21478 5.32123,3.85825 12.8273,17.73926 12.23234,22.62134 -0.38742,3.1791 -0.42532,3.21062 -0.5748,0.47809 z m 22.4795,-7.50609 c -0.90174,-2.98733 -1.63954,-6.16574 -1.63954,-7.06314 0,-0.8974 -1.8,-4.61607 -4,-8.26372 -2.2,-3.64765 -4,-7.02658 -4,-7.50873 0,-1.76095 -5.61443,-8.23141 -9.92616,-11.43959 -11.73277,-8.72985 -12.37952,-9.08352 -14.35503,-7.84979 -1.56567,0.97778 -1.95806,0.85759 -2.37233,-0.72661 -0.92881,-3.55174 -9.58191,-6.00383 -29.34648,-8.31611 -4.78236,-0.55949 -26.86233,-0.86461 -50.48358,-0.69762 l -41.98358,0.29681 -0.67486,3.5 c -0.9025,4.68052 -2.67516,9.87579 -2.72966,8 -0.024,-0.825 0.53452,-3.975 1.24109,-7 l 1.28466,-5.5 50.42297,0 c 45.97761,0 51.12825,0.1668 58.42296,1.89196 20.02374,4.73553 34.1636,14.80969 43.66252,31.10804 4.61673,7.92144 9.43805,21.27388 8.56772,23.72792 -0.24813,0.69964 -1.18895,-1.1721 -2.0907,-4.15942 z m -171.44228,2.4315 c 0.0216,-1.1 0.38289,-3.35 0.80274,-5 0.59345,-2.33221 0.78971,-2.51229 0.88168,-0.80902 0.0651,1.20504 0.56832,2.4691 1.11832,2.80902 1.58695,0.98079 1.20017,3.79079 -0.43539,3.16317 -0.78947,-0.30295 -1.65394,-0.0136 -1.92106,0.64301 -0.26711,0.6566 -0.46794,0.29382 -0.44629,-0.80618 z m 156.80274,-15 c 0,-0.825 0.3949,-1.5 0.87756,-1.5 0.48265,0 1.43775,0.675 2.12244,1.5 1.04007,1.2532 0.89568,1.5 -0.87756,1.5 -1.21995,0 -2.12244,-0.63782 -2.12244,-1.5 z m -11.8125,-4.5625 c 0.24062,-0.72187 1.02812,-1.50938 1.75,-1.75 0.75,-0.25 1.125,0.125 0.875,0.875 -0.24063,0.72187 -1.02813,1.50938 -1.75,1.75 -0.75,0.25 -1.125,-0.125 -0.875,-0.875 z m 90.8125,-6.92158 c 0,-1.85587 4.48444,-24.41334 5.61928,-28.26592 0.48299,-1.63966 4.042,-1.75 56.44811,-1.75 47.17368,0 55.93261,0.2184 55.93261,1.39466 0,0.76707 -0.84706,4.25457 -1.88236,7.75 -1.0353,3.49544 -2.91923,10.06784 -4.18651,14.60534 l -2.30415,8.25 -54.81349,0 c -54.00024,0 -54.81349,-0.0294 -54.81349,-1.98408 z m 107.7596,0.15381 c 1.74523,-1.10793 8.46449,-24.88832 7.70683,-27.27551 -0.60029,-1.89135 -2.00437,-1.93944 -54.54129,-1.86836 -47.38707,0.0641 -53.92514,0.25599 -53.92514,1.58257 0,0.83028 0.45,1.23149 1,0.89157 0.55,-0.33992 1,0.27172 1,1.3592 0,3.03026 -1.03807,5.06322 -2.33276,4.56846 -1.09581,-0.41875 -3.54231,7.89226 -5.24632,17.82234 l -0.6435,3.75 52.86129,-0.0153 c 29.07371,-0.008 53.42811,-0.37515 54.12089,-0.81496 z m -143.7596,-4.61071 c 0,-0.85746 0.45,-1.55902 1,-1.55902 0.55,0 1,0.42344 1,0.94098 0,0.51754 -0.45,1.2191 -1,1.55902 -0.55,0.33992 -1,-0.0835 -1,-0.94098 z m -11,-17.11804 c 0,-0.85746 0.45,-1.2809 1,-0.94098 0.55,0.33992 1,1.04148 1,1.55902 0,0.51754 -0.45,0.94098 -1,0.94098 -0.55,0 -1,-0.70156 -1,-1.55902 z m -43.84921,-12.0469 c -15.11087,-6.8985 -36.94994,-8.78872 -94.9015,-8.21395 l -32.25071,0.31987 7.1e-4,-2.8204 c 0.001,-4.43717 3.22082,-19.6796 4.15698,-19.6796 1.18214,0 1.09833,0.61606 -1.15627,8.5 -2.11698,7.40269 -2.64749,14.0182 -1.04471,13.02763 1.07568,-0.66481 62.37429,-0.68302 85.86197,-0.0255 11.92317,0.33378 17.59902,0.98925 25.61467,2.9581 8.68445,2.13312 19.56807,6.65234 19.56807,8.12527 0,0.51722 0.46799,0.69256 -5.84921,-2.19141 z m 100.31915,-9.63545 c -0.26064,-0.69225 0.78527,-6.88363 2.32426,-13.75863 l 2.79816,-12.5 40.20382,-0.26134 c 22.1121,-0.14374 40.20404,0.0813 40.20431,0.5 2.6e-4,0.41873 -17.88724,0.76134 -39.75,0.76134 l -39.75049,0 -1.59438,8 c -0.87691,4.4 -2.10221,9.7747 -2.7229,11.94377 -0.62068,2.16907 -1.00791,4.06438 -0.8605,4.21178 0.40112,0.40112 106.79214,0.56342 107.19203,0.16353 0.7872,-0.7872 -1.76014,-9.77826 -3.08092,-10.87441 -0.78833,-0.65426 -1.4411,-1.69696 -1.45061,-2.31712 -0.0225,-1.46935 -3.5185,-4.65402 -8.28532,-7.54749 -2.09143,-1.26951 -3.56025,-2.55054 -3.26406,-2.84674 0.2962,-0.2962 2.6654,0.77639 5.26488,2.38352 5.97925,3.69669 11.31252,12.21409 11.60211,18.52893 l 0.19967,4.35423 -54.27807,0.25863 c -42.89305,0.20437 -54.37748,-0.005 -54.75199,-1 z m -77.46994,-3.81765 c 0,-0.58246 0.45,-0.7809 1,-0.44098 0.55,0.33992 1,0.81648 1,1.05902 0,0.24254 -0.45,0.44098 -1,0.44098 -0.55,0 -1,-0.47656 -1,-1.05902 z m -9,-4.9096 c 0,-0.53273 0.675,-0.70959 1.5,-0.39301 0.825,0.31659 1.5,0.75246 1.5,0.96862 0,0.21615 -0.675,0.39301 -1.5,0.39301 -0.825,0 -1.5,-0.43588 -1.5,-0.96862 z"
         id="path3349"
         inkscape:connector-curvature="0" />
    </g>
  </g>
</svg>
